{
    "accessors" : [
        {
            "bufferView" : 0, 
            "componentType" : 5121, 
            "count" : 384, 
            "max" : [
                143
            ], 
            "min" : [
                0
            ], 
            "type" : "SCALAR"
        }, 
        {
            "bufferView" : 1, 
            "componentType" : 5126, 
            "count" : 144, 
            "max" : [
                0.5, 
                0.10000000149011612, 
                4.399999618530273
            ], 
            "min" : [
                -0.3999999761581421, 
                0.10000000149011612, 
                -64.30000305175781
            ], 
            "type" : "VEC3"
        }, 
        {
            "bufferView" : 2, 
            "componentType" : 5126, 
            "count" : 144, 
            "max" : [
                0.0, 
                1.0, 
                0.0
            ], 
            "min" : [
                0.0, 
                0.9999999403953552, 
                0.0
            ], 
            "type" : "VEC3"
        }
    ], 
    "asset" : {
        "generator" : "Khronos Blender glTF 2.0 exporter", 
        "version" : "2.0"
    }, 
    "bufferViews" : [
        {
            "buffer" : 0, 
            "byteLength" : 384, 
            "byteOffset" : 0, 
            "target" : 34963
        }, 
        {
            "buffer" : 0, 
            "byteLength" : 1728, 
            "byteOffset" : 384, 
            "target" : 34962
        }, 
        {
            "buffer" : 0, 
            "byteLength" : 1728, 
            "byteOffset" : 2112, 
            "target" : 34962
        }
    ], 
    "buffers" : [
        {
            "byteLength" : 3840, 
            "uri" : "worm-slicer-navmesh.bin"
        }
    ], 
    "meshes" : [
        {
            "name" : "Navmesh.011", 
            "primitives" : [
                {
                    "attributes" : {
                        "NORMAL" : 2, 
                        "POSITION" : 1
                    }, 
                    "indices" : 0
                }
            ]
        }
    ], 
    "nodes" : [
        {
            "mesh" : 0, 
            "name" : "Navmesh", 
            "scale" : [
                2.0, 
                1.0, 
                1.0
            ]
        }
    ], 
    "scene" : 0, 
    "scenes" : [
        {
            "name" : "Scene", 
            "nodes" : [
                0
            ]
        }
    ]
}
